<svg width="32" height="32" viewBox="0 0 32 32" fill="none" xmlns="http://www.w3.org/2000/svg">
<path d="M19.7044 2.0625L6 19H14L12.0306 29.8269C12.0269 29.8481 12.0278 29.8699 12.0334 29.8908C12.039 29.9116 12.0491 29.9309 12.063 29.9474C12.0769 29.964 12.0942 29.9772 12.1138 29.9863C12.1334 29.9954 12.1547 30.0001 12.1763 30C12.1992 30 12.2218 29.9946 12.2423 29.9843C12.2628 29.974 12.2807 29.959 12.2944 29.9406L26 13H18L19.9788 2.17188C19.9814 2.1503 19.9795 2.12841 19.973 2.10766C19.9665 2.0869 19.9557 2.06776 19.9413 2.0515C19.9269 2.03524 19.9092 2.02224 19.8893 2.01336C19.8695 2.00448 19.848 1.99993 19.8263 2C19.8025 2.0001 19.779 2.0058 19.7578 2.01666C19.7367 2.02753 19.7183 2.04323 19.7044 2.0625Z" stroke="white" stroke-width="1.5" stroke-linecap="round" stroke-linejoin="round"/>
</svg>
