<svg width="28" height="28" viewBox="0 0 28 28" fill="none" xmlns="http://www.w3.org/2000/svg">
<path d="M23.5703 17.5328C23.5156 17.3359 23.6359 17.0625 23.7508 16.8656C23.7859 16.807 23.8243 16.7505 23.8656 16.6961C24.848 15.2364 25.3734 13.5173 25.375 11.7578C25.3914 6.71562 21.1367 2.625 15.8758 2.625C11.2875 2.625 7.45939 5.74766 6.56251 9.89297C6.42834 10.5074 6.3605 11.1344 6.36017 11.7633C6.36017 16.8109 10.4508 21.0109 15.7117 21.0109C16.5484 21.0109 17.675 20.7594 18.293 20.5898C18.9109 20.4203 19.5234 20.1961 19.682 20.1359C19.8446 20.0746 20.0169 20.0431 20.1906 20.043C20.3802 20.0422 20.568 20.0794 20.743 20.1523L23.8438 21.2516C23.9117 21.2803 23.9836 21.2988 24.057 21.3062C24.1731 21.3062 24.2844 21.2602 24.3664 21.1781C24.4484 21.0961 24.4945 20.9848 24.4945 20.8687C24.4907 20.8187 24.4815 20.7692 24.4672 20.7211L23.5703 17.5328Z" stroke="black" stroke-width="1.75" stroke-miterlimit="10" stroke-linecap="round"/>
<path d="M3.63453 12.6875C2.91727 13.9761 2.57029 15.4379 2.63197 16.9113C2.69364 18.3848 3.16155 19.8125 3.98399 21.0366C4.11032 21.2275 4.18141 21.3752 4.15953 21.4741C4.13766 21.5731 3.50711 24.8577 3.50711 24.8577C3.49195 24.9345 3.4977 25.014 3.52377 25.0879C3.54984 25.1618 3.59527 25.2273 3.65531 25.2777C3.73544 25.3415 3.83506 25.3759 3.9375 25.375C3.99224 25.3751 4.04641 25.3639 4.09664 25.3422L7.17063 24.1391C7.38219 24.0557 7.61821 24.0596 7.82688 24.15C8.86266 24.5536 10.0078 24.8063 11.1535 24.8063C12.6909 24.8079 14.2014 24.4024 15.5313 23.631" stroke="black" stroke-width="1.75" stroke-miterlimit="10" stroke-linecap="round"/>
</svg>
