<svg width="64" height="64" viewBox="0 0 64 64" fill="none" xmlns="http://www.w3.org/2000/svg">
<path d="M11.2713 27.2726C7.89558 30.6483 5.99913 35.2267 5.99913 40.0007C5.99913 44.7747 7.89558 49.3531 11.2713 52.7288C14.647 56.1045 19.2254 58.001 23.9994 58.001C28.7734 58.001 33.3518 56.1045 36.7275 52.7288" stroke="black" stroke-width="4" stroke-miterlimit="10"/>
<path d="M19.7576 35.7574C18.6475 36.8857 18.0282 38.4069 18.0347 39.9898C18.0411 41.5726 18.6727 43.0887 19.792 44.208C20.9112 45.3272 22.4274 45.9588 24.0102 45.9653C25.593 45.9717 27.1142 45.3525 28.2426 44.2424" stroke="black" stroke-width="4" stroke-miterlimit="10"/>
<path d="M40 6V12V6ZM52.7275 11.2725L48.485 15.515L52.7275 11.2725ZM58 24H52H58Z" fill="black"/>
<path d="M40 6V12M52.7275 11.2725L48.485 15.515M58 24H52" stroke="black" stroke-width="4" stroke-miterlimit="10" stroke-linecap="round"/>
<path d="M28.2425 44.2425L42.385 30.1013C43.1351 29.3513 44.1524 28.93 45.2131 28.93C46.2738 28.93 47.2911 29.3513 48.0412 30.1013L50.875 32.9288C51.2465 33.3002 51.5412 33.7412 51.7423 34.2266C51.9434 34.7119 52.0469 35.2321 52.0469 35.7575C52.0469 36.2829 51.9434 36.8031 51.7423 37.2885C51.5412 37.7738 51.2465 38.2148 50.875 38.5863L36.7275 52.7288M11.2712 27.2725L25.4137 13.125C25.7852 12.7535 26.2262 12.4588 26.7115 12.2577C27.1969 12.0566 27.7171 11.9531 28.2425 11.9531C28.7678 11.9531 29.2881 12.0566 29.7734 12.2577C30.2588 12.4588 30.6998 12.7535 31.0712 13.125L33.8987 15.9538C34.2703 16.3252 34.565 16.7662 34.7661 17.2516C34.9671 17.7369 35.0706 18.2571 35.0706 18.7825C35.0706 19.3079 34.9671 19.8281 34.7661 20.3135C34.565 20.7988 34.2703 21.2398 33.8987 21.6113L19.7575 35.7575M46.55 42.7525L38.065 34.2663M29.58 25.7813L21.0937 17.2963" stroke="black" stroke-width="4" stroke-linejoin="round"/>
</svg>
