<svg width="28" height="28" viewBox="0 0 28 28" fill="none" xmlns="http://www.w3.org/2000/svg">
<path d="M24.5 18.6687V9.33029C24.4996 9.02464 24.4192 8.72442 24.2667 8.45951C24.1143 8.1946 23.8951 7.97424 23.631 7.82037L15.3185 2.98271C14.918 2.74955 14.4629 2.62671 13.9995 2.62671C13.536 2.62671 13.0809 2.74955 12.6804 2.98271L4.36898 7.82037C4.10489 7.97424 3.88571 8.1946 3.73325 8.45951C3.58079 8.72442 3.50037 9.02464 3.5 9.33029V18.6687C3.50018 18.9746 3.58051 19.275 3.73298 19.5401C3.88545 19.8052 4.10473 20.0258 4.36898 20.1797L12.6815 25.0174C13.0821 25.2502 13.5372 25.3729 14.0005 25.3729C14.4639 25.3729 14.919 25.2502 15.3196 25.0174L23.6321 20.1797C23.8962 20.0256 24.1152 19.805 24.2675 19.5399C24.4198 19.2748 24.4999 18.9745 24.5 18.6687Z" stroke="black" stroke-width="1.75" stroke-linecap="round" stroke-linejoin="round"/>
<path d="M3.77344 8.42139L14 14.437M14 14.437L24.2266 8.42139M14 14.437V25.3745" stroke="black" stroke-width="1.75" stroke-linecap="round" stroke-linejoin="round"/>
</svg>
