<svg width="28" height="28" viewBox="0 0 28 28" fill="none" xmlns="http://www.w3.org/2000/svg">
<path d="M14 8.75001C14.875 5.29594 18.1798 3.53227 25.375 3.50001C25.49 3.49957 25.604 3.52191 25.7104 3.56573C25.8167 3.60955 25.9134 3.67398 25.9947 3.75532C26.076 3.83666 26.1405 3.93329 26.1843 4.03965C26.2281 4.146 26.2504 4.25998 26.25 4.37501V20.125C26.25 20.3571 26.1578 20.5796 25.9937 20.7437C25.8296 20.9078 25.6071 21 25.375 21C18.375 21 15.6707 22.4115 14 24.5M14 8.75001C13.125 5.29594 9.82024 3.53227 2.62501 3.50001C2.50998 3.49957 2.396 3.52191 2.28965 3.56573C2.18329 3.60955 2.08666 3.67398 2.00532 3.75532C1.92398 3.83666 1.85955 3.93329 1.81573 4.03965C1.77191 4.146 1.74957 4.25998 1.75001 4.37501V20.0195C1.75001 20.5598 2.08469 21 2.62501 21C9.62501 21 12.3391 22.4219 14 24.5M14 8.75001V24.5" stroke="black" stroke-width="1.75" stroke-linecap="round" stroke-linejoin="round"/>
</svg>
