<svg width="64" height="64" viewBox="0 0 64 64" fill="none" xmlns="http://www.w3.org/2000/svg">
<path d="M53.7637 43.4875C52.9387 42.725 51.7263 42.5375 50.6888 42.3625C49.2513 42.125 48.7012 41.8625 47.8637 41.1125C46.0762 39.525 46.0762 37.225 47.8637 35.6375L51.6512 32.275C57.4512 27.15 57.4512 18.75 51.6512 13.625C47.3762 9.8625 41.6387 8 35.6762 8C28.7137 8 21.4387 10.5375 15.8262 15.5125C5.38875 24.7375 5.38875 39.85 15.8262 49.075C21.0137 53.6625 28.0137 55.95 34.9387 56H35.1512C42.0762 56 48.9013 53.7625 53.7513 49.45C55.5513 47.8625 55.25 44.875 53.7637 43.4875Z" stroke="black" stroke-width="4" stroke-miterlimit="10"/>
<path d="M18 30C20.2091 30 22 28.2091 22 26C22 23.7909 20.2091 22 18 22C15.7909 22 14 23.7909 14 26C14 28.2091 15.7909 30 18 30Z" fill="black"/>
<path d="M19 42.875C21.2091 42.875 23 41.0841 23 38.875C23 36.6659 21.2091 34.875 19 34.875C16.7909 34.875 15 36.6659 15 38.875C15 41.0841 16.7909 42.875 19 42.875Z" fill="black"/>
<path d="M28 22C30.2091 22 32 20.2091 32 18C32 15.7909 30.2091 14 28 14C25.7909 14 24 15.7909 24 18C24 20.2091 25.7909 22 28 22Z" fill="black"/>
<path d="M32 51.875C35.3137 51.875 38 49.1887 38 45.875C38 42.5613 35.3137 39.875 32 39.875C28.6863 39.875 26 42.5613 26 45.875C26 49.1887 28.6863 51.875 32 51.875Z" fill="black"/>
<path d="M41 22C43.2091 22 45 20.2091 45 18C45 15.7909 43.2091 14 41 14C38.7909 14 37 15.7909 37 18C37 20.2091 38.7909 22 41 22Z" fill="black"/>
</svg>
