<svg width="64" height="64" viewBox="0 0 64 64" fill="none" xmlns="http://www.w3.org/2000/svg">
<path d="M57.7262 6.72618C57.705 6.62359 57.6548 6.52921 57.5818 6.45414C57.5087 6.37908 57.4157 6.32644 57.3137 6.30243C50.5162 4.63993 34.8137 10.5637 26.2975 19.0737C24.7797 20.579 23.3958 22.2135 22.1612 23.9587C19.5362 23.7212 16.9112 23.9212 14.6762 24.8962C8.36497 27.6712 6.52872 34.9187 6.01622 38.0299C5.98845 38.2004 6.00031 38.375 6.05088 38.5401C6.10145 38.7053 6.18937 38.8566 6.30782 38.9823C6.42628 39.108 6.57209 39.2048 6.73396 39.265C6.89582 39.3253 7.06939 39.3475 7.24122 39.3299L17.375 38.2174C17.3819 38.9818 17.4278 39.7453 17.5125 40.5049C17.5654 41.03 17.7996 41.5202 18.175 41.8912L22.0987 45.8149C22.47 46.1905 22.9607 46.4248 23.4862 46.4774C24.2413 46.5616 25.0002 46.6075 25.76 46.6149L24.6487 56.7399C24.6314 56.9115 24.6537 57.0848 24.714 57.2464C24.7743 57.408 24.871 57.5536 24.9965 57.6719C25.122 57.7902 25.2731 57.878 25.438 57.9286C25.6029 57.9792 25.7772 57.9912 25.9475 57.9637C29.06 57.4637 36.3225 55.6274 39.0812 49.3174C40.0562 47.0799 40.2562 44.4687 40.0312 41.8562C41.7815 40.6228 43.4207 39.2388 44.93 37.7199C53.4775 29.2199 59.3637 13.8624 57.7262 6.72618ZM37.3325 26.7087C36.5859 25.9623 36.0774 25.0112 35.8714 23.9758C35.6653 22.9404 35.7709 21.8671 36.1749 20.8918C36.5788 19.9164 37.263 19.0827 38.1407 18.4962C39.0185 17.9096 40.0505 17.5966 41.1062 17.5966C42.1619 17.5966 43.1939 17.9096 44.0717 18.4962C44.9495 19.0827 45.6336 19.9164 46.0375 20.8918C46.4415 21.8671 46.5471 22.9404 46.3411 23.9758C46.135 25.0112 45.6266 25.9623 44.88 26.7087C44.3848 27.2049 43.7966 27.5986 43.149 27.8673C42.5015 28.1359 41.8073 28.2742 41.1062 28.2742C40.4052 28.2742 39.711 28.1359 39.0634 27.8673C38.4159 27.5986 37.8277 27.2049 37.3325 26.7087Z" stroke="black" stroke-width="4" stroke-linecap="round" stroke-linejoin="round"/>
<path d="M13.705 44C12.4589 44.153 11.2996 44.7179 10.4113 45.605C8.20875 47.815 8 56 8 56C8 56 16.19 55.7913 18.3937 53.5863C19.2845 52.6993 19.8503 51.5381 20 50.29" stroke="black" stroke-width="4" stroke-linecap="round" stroke-linejoin="round"/>
</svg>
